<?xml version="1.0" encoding="UTF-8"?>
<svg id="Layer_1" data-name="Layer 1" xmlns="http://www.w3.org/2000/svg" viewBox="0 0 1440 1440">
  <rect id="Background" width="1440" height="1440" fill="#fff"/>
  <path id="Blob-square_version" data-name="Blob-square version" d="M984.062,768.02v-98.225c0-25.682,9.502-50.626,27.237-69.202,21.457-22.474,34.409-53.132,33.67-86.829-1.42-64.773-54.338-117.692-119.111-119.111-33.697-.738-64.355,12.213-86.829,33.67-18.576,17.735-43.519,27.237-69.202,27.237h-99.656c-25.683,0-50.627-9.503-69.203-27.238-22.472-21.455-53.126-34.405-86.819-33.669-65.136,1.423-118.201,54.907-119.137,120.052-.979,68.131,53.956,123.668,121.862,123.668,32.418,0,61.864-12.667,83.689-33.314,19.106-18.075,44.738-27.623,71.039-27.623h145.992c24.526,0,44.592,20.066,44.592,44.592v147.423c0,25.683-9.503,50.627-27.238,69.203-21.455,22.472-34.405,53.126-33.669,86.819,1.423,65.136,54.907,118.201,120.052,119.137,68.131.979,123.668-53.956,123.668-121.862,0-32.418-12.667-61.864-33.314-83.689-18.075-19.106-27.623-44.738-27.623-71.039Z"/>
  <rect id="square" x="476.25" y="719.623" width="243.75" height="243.75" rx="10.156" ry="10.156" fill="#1469e2"/>
</svg>